<svg xmlns="http://www.w3.org/2000/svg" viewBox="0 0 560 130" width="560" height="130">
  <defs>
    <linearGradient id="g" x1="20" y1="0" x2="220" y2="0" gradientUnits="userSpaceOnUse">
      <stop offset="0" stop-color="#c9a25e"/><stop offset="0.5" stop-color="#e9d2a0"/><stop offset="1" stop-color="#c9a25e"/>
    </linearGradient>
  </defs>
  <g transform="translate(0,1)" fill="none">
    <line x1="26" y1="96" x2="214" y2="96" stroke="#f4f2ee" stroke-width="2.2" stroke-linecap="round"/>
    <line x1="80" y1="30" x2="80" y2="96" stroke="#f4f2ee" stroke-width="2.6" stroke-linecap="round"/>
    <line x1="160" y1="30" x2="160" y2="96" stroke="#f4f2ee" stroke-width="2.6" stroke-linecap="round"/>
    <g stroke="url(#g)" stroke-width="1" stroke-opacity="0.7">
      <line x1="100" y1="52.5" x2="100" y2="96"/><line x1="120" y1="61" x2="120" y2="96"/><line x1="140" y1="52.5" x2="140" y2="96"/>
      <line x1="53" y1="63" x2="53" y2="96"/><line x1="187" y1="63" x2="187" y2="96"/>
    </g>
    <path d="M26 92 C 50 74 66 46 80 30 C 96 46 108 55 120 61 C 132 55 144 46 160 30 C 174 46 190 74 214 92" stroke="url(#g)" stroke-width="2.6" stroke-linecap="round" stroke-linejoin="round"/>
    <circle cx="120" cy="61" r="3.6" fill="url(#g)"/>
  </g>
  <text x="262" y="64" font-family="Inter, Arial, sans-serif" font-weight="700" font-size="42" letter-spacing="1" fill="#f4f2ee">BANABA</text>
  <text x="262" y="106" font-family="Inter, Arial, sans-serif" font-weight="700" font-size="42" letter-spacing="1" fill="url(#g)">BRIDGE</text>
</svg>
